<svg id="canvas" height="auto" xmlns="http://www.w3.org/2000/svg" version="1.1" xmlns:xlink="http://www.w3.org/1999/xlink" viewBox="0 0 1920 1080" width="auto" style="width: auto; height: auto;"><rect width="1920" height="1080" fill="transparent"/><circle r="22.206230884204448" cx="22.206230884204448" cy="22.206230884204448" transform="matrix(1,0,0,1,1501.149737250788,184.58956190523858)" stroke-width="2" stroke="#a09a6a" fill="none"/><polyline points="1836.149658203125,285.54109621824455 1871.644067457671,250.04668696369825 1907.1384767122174,285.54109621824455 1942.6328859667638,250.04668696369825 1978.12729522131,285.54109621824455 2013.6217044758564,250.04668696369825 2049.1161137304025,285.54109621824455" stroke-width="2" stroke="#a09a6a" fill="none"/><svg width="93.1347371676192" height="93.1347371676192" stroke-width="2" stroke="#a09a6a" fill="none" x="942.5279122442522" y="784.68823554178"><line x1="0" y1="23.2836842919048" x2="46.5673685838096" y2="23.284684291904803"/><line x1="23.2836842919048" y1="0" x2="23.284684291904803" y2="46.5673685838096"/></svg><svg width="102.54040168751374" height="102.54040168751374" stroke-width="2" stroke="#a09a6a" fill="none" x="753.0229549430496" y="428.21965749673876"><line x1="0" y1="25.635100421878434" x2="51.27020084375687" y2="25.636100421878435"/><line x1="25.635100421878434" y1="0" x2="25.636100421878435" y2="51.27020084375687"/></svg><svg width="57.153003627959635" height="57.153003627959635" stroke-width="2" stroke="#a09a6a" fill="none" x="1516.9144486879886" y="569.1466468343402"><line x1="0" y1="14.288250906989909" x2="28.576501813979817" y2="14.289250906989908"/><line x1="14.288250906989909" y1="0" x2="14.289250906989908" y2="28.576501813979817"/></svg><circle r="15.919910840825231" cx="15.919910840825231" cy="15.919910840825231" transform="matrix(1,0,0,1,313.2700863041751,117.06356022537382)" stroke-width="2" stroke="#a09a6a" fill="none"/><svg width="41.36611579627835" height="41.36611579627835" stroke-width="2" stroke="#a09a6a" fill="none" x="1161.616910758849" y="398.1269871464705"><line x1="0" y1="10.341528949069588" x2="20.683057898139175" y2="10.342528949069587"/><line x1="10.341528949069588" y1="0" x2="10.342528949069587" y2="20.683057898139175"/></svg><polyline points="1620.8201904296875,75.0192721441575 1652.8271572829285,43.012305290916515 1684.8341241361693,75.0192721441575 1716.8410909894103,43.012305290916515 1748.8480578426513,75.0192721441575 1780.8550246958923,43.012305290916515 1812.8619915491333,75.0192721441575" stroke-width="2" stroke="#a09a6a" fill="none"/><circle r="19.13385156127468" cx="19.13385156127468" cy="19.13385156127468" transform="matrix(1,0,0,1,1272.3877308422825,118.64846593330992)" stroke-width="2" stroke="#a09a6a" fill="none"/><polyline points="1000.0756225585938,461.62567041206773 1027.7350992341367,433.96619373652476 1055.3945759096798,461.62567041206773 1083.0540525852227,433.96619373652476 1110.7135292607657,461.62567041206773 1138.3730059363088,433.96619373652476 1166.0324826118517,461.62567041206773" stroke-width="2" stroke="#a09a6a" fill="none"/><polyline points="1650.8046875,1013.8999826902012 1680.1131106916712,984.59155949853 1709.4215338833424,1013.8999826902012 1738.7299570750135,984.59155949853 1768.0383802666845,1013.8999826902012 1797.346803458356,984.59155949853 1826.6552266500269,1013.8999826902012" stroke-width="2" stroke="#a09a6a" fill="none"/><svg width="46.0051047623264" height="46.0051047623264" stroke-width="2" stroke="#a09a6a" fill="none" x="871.6776867202249" y="948.1146776242758"><line x1="0" y1="11.5012761905816" x2="23.0025523811632" y2="11.502276190581599"/><line x1="11.5012761905816" y1="0" x2="11.502276190581599" y2="23.0025523811632"/></svg><circle r="24.164964805960548" cx="24.164964805960548" cy="24.164964805960548" transform="matrix(1,0,0,1,224.1209029603424,72.35891367166498)" stroke-width="2" stroke="#a09a6a" fill="none"/><polyline points="562.8023681640625,409.95565910286837 583.5934656718445,389.1645615950864 604.3845631796264,409.95565910286837 625.1756606874084,389.1645615950864 645.9667581951903,409.95565910286837 666.7578557029723,389.1645615950864 687.5489532107542,409.95565910286837" stroke-width="2" stroke="#a09a6a" fill="none"/><svg width="89.68219806622406" height="89.68219806622406" stroke-width="2" stroke="#a09a6a" fill="none" x="1460.561759379744" y="271.4737894907175"><line x1="0" y1="22.420549516556015" x2="44.84109903311203" y2="22.421549516556016"/><line x1="22.420549516556015" y1="0" x2="22.421549516556016" y2="44.84109903311203"/></svg><svg width="82.89808986535839" height="82.89808986535839" stroke-width="2" stroke="#a09a6a" fill="none" x="212.62438134400375" y="17.465591691678423"><line x1="0" y1="20.724522466339597" x2="41.44904493267919" y2="20.725522466339598"/><line x1="20.724522466339597" y1="0" x2="20.725522466339598" y2="41.44904493267919"/></svg><polyline points="1359.1173095703125,887.3901206204548 1401.8423015389003,844.665128651867 1444.5672935074879,887.3901206204548 1487.2922854760757,844.665128651867 1530.0172774446635,887.3901206204548 1572.742269413251,844.665128651867 1615.4672613818389,887.3901206204548" stroke-width="2" stroke="#a09a6a" fill="none"/><svg width="80.90648787958388" height="80.90648787958388" stroke-width="2" stroke="#a09a6a" fill="none" x="384.42503606666463" y="1024.722463959891"><line x1="0" y1="20.22662196989597" x2="40.45324393979194" y2="20.22762196989597"/><line x1="20.22662196989597" y1="0" x2="20.22762196989597" y2="40.45324393979194"/></svg><svg width="100.69054169806577" height="100.69054169806577" stroke-width="2" stroke="#a09a6a" fill="none" x="1428.234051159119" y="401.14937254308563"><line x1="0" y1="25.172635424516443" x2="50.345270849032886" y2="25.173635424516444"/><line x1="25.172635424516443" y1="0" x2="25.173635424516444" y2="50.345270849032886"/></svg><svg width="111.45158167204882" height="111.45158167204882" stroke-width="2" stroke="#a09a6a" fill="none" x="1291.3740261324551" y="1031.559012402707"><line x1="0" y1="27.862895418012204" x2="55.72579083602441" y2="27.863895418012206"/><line x1="27.862895418012204" y1="0" x2="27.863895418012206" y2="55.72579083602441"/></svg></svg>