<svg id="canvas" height="auto" xmlns="http://www.w3.org/2000/svg" version="1.1" xmlns:xlink="http://www.w3.org/1999/xlink" viewBox="0 0 1920 1080" width="auto" style="width: auto; height: auto;"><rect width="1920" height="1080" fill="transparent"/><svg width="81.12886626856772" height="81.12886626856772" stroke-width="2" stroke="#ffffff" fill="none" x="229.16961293218245" y="266.26892910499146"><line x1="0" y1="20.28221656714193" x2="40.56443313428386" y2="20.28321656714193"/><line x1="20.28221656714193" y1="0" x2="20.28321656714193" y2="40.56443313428386"/></svg><polyline points="1468.8924560546875,640.2769448276252 1504.1112344931955,605.0581663891173 1539.3300129317035,640.2769448276252 1574.5487913702113,605.0581663891173 1609.7675698087191,640.2769448276252 1644.9863482472272,605.0581663891173 1680.2051266857352,640.2769448276252" stroke-width="2" stroke="#ffffff" fill="none"/><polyline points="403.0317077636719,235.29394595035694 443.4477351828797,194.87791853114913 483.8637626020875,235.29394595035694 524.2797900212953,194.87791853114913 564.6958174405031,235.29394595035694 605.1118448597109,194.87791853114913 645.5278722789188,235.29394595035694" stroke-width="2" stroke="#ffffff" fill="none"/><svg width="67.76423436530962" height="67.76423436530962" stroke-width="2" stroke="#ffffff" fill="none" x="119.88552555686168" y="159.95383962087948"><line x1="0" y1="16.941058591327405" x2="33.88211718265481" y2="16.942058591327406"/><line x1="16.941058591327405" y1="0" x2="16.942058591327406" y2="33.88211718265481"/></svg><svg width="102.51437706610066" height="102.51437706610066" stroke-width="2" stroke="#ffffff" fill="none" x="425.06494335531943" y="984.0101477879671"><line x1="0" y1="25.628594266525166" x2="51.25718853305033" y2="25.629594266525167"/><line x1="25.628594266525166" y1="0" x2="25.629594266525167" y2="51.25718853305033"/></svg><polyline points="1755.73095703125,369.57415156557147 1790.8196249993887,334.4854835974327 1825.9082929675274,369.57415156557147 1860.9969609356663,334.4854835974327 1896.0856289038052,369.57415156557147 1931.1742968719439,334.4854835974327 1966.2629648400825,369.57415156557147" stroke-width="2" stroke="#ffffff" fill="none"/><polyline points="352.79718017578125,1073.5283017141635 391.4164522724564,1034.9090296174884 430.0357243691315,1073.5283017141635 468.6549964658066,1034.9090296174884 507.2742685624817,1073.5283017141635 545.8935406591568,1034.9090296174884 584.5128127558319,1073.5283017141635" stroke-width="2" stroke="#ffffff" fill="none"/><svg width="103.57826798378625" height="103.57826798378625" stroke-width="2" stroke="#ffffff" fill="none" x="1491.4094380718918" y="345.6727082474887"><line x1="0" y1="25.894566995946562" x2="51.789133991893124" y2="25.895566995946563"/><line x1="25.894566995946562" y1="0" x2="25.895566995946563" y2="51.789133991893124"/></svg><svg width="49.3219293256371" height="49.3219293256371" stroke-width="2" stroke="#ffffff" fill="none" x="887.8747459877656" y="518.509428271507"><line x1="0" y1="12.330482331409275" x2="24.66096466281855" y2="12.331482331409275"/><line x1="12.330482331409275" y1="0" x2="12.331482331409275" y2="24.66096466281855"/></svg><circle r="19.052385213945104" cx="19.052385213945104" cy="19.052385213945104" transform="matrix(1,0,0,1,1877.8587552511408,780.9486139265823)" stroke-width="2" stroke="#ffffff" fill="none"/><svg width="108.8073929248229" height="108.8073929248229" stroke-width="2" stroke="#ffffff" fill="none" x="1492.09593585816" y="1029.4610881644937"><line x1="0" y1="27.201848231205727" x2="54.40369646241145" y2="27.202848231205728"/><line x1="27.201848231205727" y1="0" x2="27.202848231205728" y2="54.40369646241145"/></svg><svg width="61.526604146281954" height="61.526604146281954" stroke-width="2" stroke="#ffffff" fill="none" x="87.05981638356373" y="807.971034243969"><line x1="0" y1="15.381651036570489" x2="30.763302073140977" y2="15.382651036570488"/><line x1="15.381651036570489" y1="0" x2="15.382651036570488" y2="30.763302073140977"/></svg><circle r="23.56273905356631" cx="23.56273905356631" cy="23.56273905356631" transform="matrix(1,0,0,1,1892.6083863126441,918.9493134813073)" stroke-width="2" stroke="#ffffff" fill="none"/><svg width="111.03350697285529" height="111.03350697285529" stroke-width="2" stroke="#ffffff" fill="none" x="647.9223483935231" y="202.32802520379983"><line x1="0" y1="27.758376743213823" x2="55.516753486427646" y2="27.759376743213824"/><line x1="27.758376743213823" y1="0" x2="27.759376743213824" y2="55.516753486427646"/></svg><svg width="48.12417310344024" height="48.12417310344024" stroke-width="2" stroke="#ffffff" fill="none" x="314.8199353920837" y="86.28125122921892"><line x1="0" y1="12.03104327586006" x2="24.06208655172012" y2="12.03204327586006"/><line x1="12.03104327586006" y1="0" x2="12.03204327586006" y2="24.06208655172012"/></svg><polyline points="1761.8206787109375,978.8355597807285 1791.293849407578,949.3623890840881 1820.767020104218,978.8355597807285 1850.2401908008585,949.3623890840881 1879.713361497499,978.8355597807285 1909.1865321941393,949.3623890840881 1938.6597028907795,978.8355597807285" stroke-width="2" stroke="#ffffff" fill="none"/><svg width="74.13162033100534" height="74.13162033100534" stroke-width="2" stroke="#ffffff" fill="none" x="693.0729942819144" y="324.95801452668485"><line x1="0" y1="18.532905082751334" x2="37.06581016550267" y2="18.533905082751335"/><line x1="18.532905082751334" y1="0" x2="18.533905082751335" y2="37.06581016550267"/></svg><polyline points="1321.93896484375,541.3190883535658 1355.2623801917564,507.99567300555947 1388.5857955397626,541.3190883535658 1421.909210887769,507.99567300555947 1455.2326262357753,541.3190883535658 1488.5560415837817,507.99567300555947 1521.879456931788,541.3190883535658" stroke-width="2" stroke="#ffffff" fill="none"/><svg width="45.21695100784308" height="45.21695100784308" stroke-width="2" stroke="#ffffff" fill="none" x="1079.261365243034" y="12.497382564756897"><line x1="0" y1="11.30423775196077" x2="22.60847550392154" y2="11.30523775196077"/><line x1="11.30423775196077" y1="0" x2="11.30523775196077" y2="22.60847550392154"/></svg><polyline points="576.8829345703125,886.3852344353877 607.8060136253272,855.462155380373 638.7290926803419,886.3852344353877 669.6521717353567,855.462155380373 700.5752507903713,886.3852344353877 731.498329845386,855.462155380373 762.4214089004007,886.3852344353877" stroke-width="2" stroke="#ffffff" fill="none"/></svg>