<svg xmlns="http://www.w3.org/2000/svg" version="1.1" xmlns:xlink="http://www.w3.org/1999/xlink" xmlns:svgjs="http://svgjs.dev/svgjs" width="1440" height="700" preserveAspectRatio="none" viewBox="0 0 1440 700"><g mask="url(&quot;#SvgjsMask2265&quot;)" fill="none"><rect width="1440" height="700" x="0" y="0" fill="url(&quot;#SvgjsLinearGradient2266&quot;)"></rect><path d="M81.4 0C130.21 60.74 103.06 92.86 140.63 175C149.86 195.17 153.62 204.15 175 204.62C258.3 206.45 283.67 145.75 350 179.61C426.05 218.44 397.5 271.6 459.75 350C485 381.8 494.86 400 525 400C549.36 400 562.73 380.96 568.75 350C584.61 268.46 586.24 245.96 568.75 175C564.37 157.23 540.79 186.44 525 172.54C441.39 98.94 369.94 51.71 369.94 0C369.94 -34.56 447.47 0 525 0C612.5 0 612.5 0 700 0C787.5 0 787.5 0 875 0C962.5 0 962.5 0 1050 0C1137.5 0 1137.5 0 1225 0C1262.5 0 1266.81 -13.5 1300 0C1354.31 22.1 1349.17 71.19 1400 71.19C1454.44 71.19 1451.82 23.88 1510.53 0C1539.32 -11.71 1565.04 -22.27 1575 0C1597.27 49.79 1580.6 73.26 1575 144.12C1573.69 160.76 1563.82 158.4 1561.18 175C1547.42 261.34 1536.76 267.49 1542.19 350C1543.67 372.49 1570.81 362.67 1575 385C1587.22 450.17 1575 455 1575 525C1575 612.5 1615.83 653.33 1575 700C1539.27 740.83 1442.52 739.55 1421.88 700C1396.87 652.05 1490.43 603.54 1483.7 525C1479.49 475.94 1439.71 444.79 1400 444.79C1364.09 444.79 1349.61 477.48 1332.46 525C1303.56 605.08 1344.46 640.44 1307.89 700C1290.73 727.94 1266.45 700 1225 700C1175.78 700 1148.07 731.35 1126.56 700C1088.02 643.85 1107.22 612.72 1104.9 525C1102.59 437.72 1132.48 432.91 1117.31 350C1105.03 282.91 1091.94 225 1050 225C999.17 225 943.94 278.22 931.76 350C918.49 428.22 973.2 435.28 999.09 525C1023.7 610.28 1065.66 653.59 1032.75 700C1003.62 741.09 953.88 700 875 700C787.5 700 787.5 700 700 700C612.5 700 612.5 700 525 700C437.5 700 437.5 700 350 700C262.5 700 262.5 700 175 700C87.5 700 43.75 743.75 0 700C-43.75 656.25 0 612.5 0 525C0 494.92 -7.97 493.29 0 464.84C16.53 405.79 49 403.49 49 350C49 318.23 9.39 327.86 0 294.32C-15.11 240.36 0 234.66 0 175C0 87.5 -27.78 59.72 0 0C12.92 -27.78 59.89 -26.76 81.4 0" stroke="rgba(226, 226, 231, 0.28)" stroke-width="2"></path><path d="M175 483.1C127.41 483.1 68.75 504.54 68.75 525C68.75 545.32 127.02 564.67 175 564.67C197.05 564.67 208.81 545.06 208.81 525C208.81 504.28 197.44 483.1 175 483.1" stroke="rgba(226, 226, 231, 0.28)" stroke-width="2"></path><path d="M0 35C16.33 35 62.5 112.11 62.5 175C62.5 208.62 18.97 228.03 0 228.03C-12.28 228.03 0 201.51 0 175C0 105 -14.92 35 0 35" stroke="rgba(226, 226, 231, 0.28)" stroke-width="2"></path><path d="M525 110.92C461.88 88.05 425.32 33.24 425.32 0C425.32 -22.22 475.16 0 525 0C612.5 0 612.5 0 700 0C787.5 0 787.5 0 875 0C962.5 0 962.5 0 1050 0C1123.58 0 1128.13 -10.98 1197.16 0C1215.63 2.94 1209.04 16.4 1225 27.84C1310.46 89.07 1312.27 86.94 1400 145.34C1422.8 160.52 1445.41 151.09 1446.05 175C1448.15 253.42 1427.68 263.83 1405.47 350C1404.66 353.15 1402.14 351.15 1400 353.65C1327.25 438.65 1321.48 435.29 1255.7 525C1233.98 554.62 1241.08 592.31 1225 592.31C1208.58 592.31 1196.78 561.52 1190.69 525C1176.59 440.36 1206.01 432.98 1184.62 350C1160.9 257.98 1149.7 257.43 1100.48 175C1082.39 144.69 1079.74 124.52 1050 124.52C999.82 124.52 989.07 141.21 940.63 175C901.57 202.24 900.06 205.89 875 246.59C846.18 293.39 832.87 299.1 832.87 350C832.87 392.94 854.09 392.05 875 434.26C897.43 479.55 902.41 477.63 919.55 525C950.48 610.5 985.72 642.69 971.13 700C963.44 730.19 923.07 700 875 700C787.5 700 787.5 700 700 700C624.01 700 619.54 710.22 548.03 700C532.04 697.72 541.1 676.88 525 675C442.09 665.32 434.33 666.64 350 676.89C331.51 679.14 337.74 697.57 319.37 700C250.24 709.13 247.19 700 175 700C87.5 700 59.87 727.63 0 700C-27.63 687.25 -27.63 631.39 0 619.23C59.87 592.89 100.52 650.15 175 623C229.78 603.03 258.52 574.56 258.52 525C258.52 473.8 218.44 471.77 175 421.48C142.85 384.27 107.33 386.48 107.33 350C107.33 311.7 130.19 282.12 175 271.92C251.53 254.49 273.28 266.29 350 294.74C378.57 305.33 361.76 327.93 385.59 350C449.26 408.97 460.6 456.82 525 456.82C577.04 456.82 574.43 405.54 618.47 350C661.93 295.19 648.26 280.12 700 236.11C751.12 192.62 824.19 208.32 824.19 175C824.19 140.02 767.79 114.03 700 99.51C618.2 81.99 599.22 137.81 525 110.92" stroke="rgba(226, 226, 231, 0.28)" stroke-width="2"></path><path d="M700 467.62C662.44 467.62 630 495.09 630 525C630 556.8 661.92 591.04 700 591.04C748.39 591.04 802.94 556.43 802.94 525C802.94 494.72 748.91 467.62 700 467.62" stroke="rgba(226, 226, 231, 0.28)" stroke-width="2"></path><path d="M1476.56 700C1476.56 642.88 1548.64 528.8 1575 528.8C1597.86 528.8 1606.25 645.65 1575 700C1557.03 731.25 1476.56 728.48 1476.56 700" stroke="rgba(226, 226, 231, 0.28)" stroke-width="2"></path><path d="M525 49.3C495.32 47.44 480.7 14.77 480.7 0C480.7 -9.88 502.85 0 525 0C612.5 0 612.5 0 700 0C787.5 0 787.5 0 875 0C962.5 0 962.5 0 1050 0C1073.86 0 1097.73 -8.74 1097.73 0C1097.73 11.45 1079.06 31.6 1050 40.38C967.7 65.25 961.05 73.86 875 67.31C786.05 60.54 788.57 18.29 700 13.73C613.57 9.28 604.97 54.31 525 49.3" stroke="rgba(226, 226, 231, 0.28)" stroke-width="2"></path><path d="M1184.62 175C1184.62 148.06 1200.98 127.27 1225 127.27C1260.06 127.27 1302.78 144.53 1302.78 175C1302.78 216.12 1257.08 270.45 1225 270.45C1198 270.45 1184.62 219.65 1184.62 175" stroke="rgba(226, 226, 231, 0.28)" stroke-width="2"></path><path d="M165.67 350C165.67 344.72 168.67 339.23 175 339.23C193.92 339.23 216.18 344.83 216.18 350C216.18 355.14 194.12 359.86 175 359.86C168.87 359.86 165.67 355.03 165.67 350" stroke="rgba(226, 226, 231, 0.28)" stroke-width="2"></path><path d="M668.18 350C668.18 327.66 681.4 305.56 700 305.56C723.24 305.56 751.85 327.57 751.85 350C751.85 372.74 723.16 395.9 700 395.9C681.32 395.9 668.18 372.83 668.18 350" stroke="rgba(226, 226, 231, 0.28)" stroke-width="2"></path><path d="M308.24 525C308.24 472.77 310.24 418.99 350 416.91C418.62 413.31 437.84 464.7 525 513.64C534.09 518.75 542.5 517.62 542.5 525C542.5 535.8 538.92 544.99 525 550C442.67 579.66 424.83 602.97 350 594.34C316.45 590.47 308.24 561.48 308.24 525" stroke="rgba(226, 226, 231, 0.28)" stroke-width="2"></path><path d="M108.33 700C108.33 695.24 142.68 681.33 175 681.33C193.52 681.33 210 695.04 210 700C210 704.38 192.5 700 175 700C141.66 700 108.33 704.58 108.33 700" stroke="rgba(226, 226, 231, 0.28)" stroke-width="2"></path><path d="M663.16 700C663.16 692.71 679.52 683.06 700 673.58C785.44 634.06 807.4 593.47 875 602C912.15 606.68 909.51 663.22 909.51 700C909.51 712.22 892.26 700 875 700C787.5 700 787.5 700 700 700C681.58 700 663.16 705.92 663.16 700" stroke="rgba(226, 226, 231, 0.28)" stroke-width="2"></path><path d="M1531.25 700C1531.25 674.61 1563.28 623.91 1575 623.91C1585.16 623.91 1588.89 675.84 1575 700C1567.01 713.89 1531.25 712.66 1531.25 700" stroke="rgba(226, 226, 231, 0.28)" stroke-width="2"></path></g><defs><mask id="SvgjsMask2265"><rect width="1440" height="700" fill="#ffffff"></rect></mask><linearGradient x1="50%" y1="0%" x2="50%" y2="100%" gradientUnits="userSpaceOnUse" id="SvgjsLinearGradient2266"><stop stop-color="rgba(0, 0, 0, 1)" offset="0"></stop><stop stop-color="rgba(160, 154, 106, 1)" offset="0.62"></stop></linearGradient></defs></svg>